<?xml version="1.0" encoding="utf-8"?>
<!-- Generator: Adobe Illustrator 27.5.0, SVG Export Plug-In . SVG Version: 6.00 Build 0)  -->
<svg version="1.1" xmlns="http://www.w3.org/2000/svg" xmlns:xlink="http://www.w3.org/1999/xlink" x="0px" y="0px"
	 viewBox="0 0 500 500" style="enable-background:new 0 0 500 500;" xml:space="preserve">
<g id="BACKGROUND">
	<rect style="fill:#FFFFFF;" width="500" height="500"/>
</g>
<g id="OBJECTS">
	<g>
		<polygon style="fill:#DA463F;" points="123.8,293.197 79.34,297.219 134.852,301.37 		"/>
		<polygon style="fill:#DA463F;" points="106.484,279.383 88.668,282.533 115.183,286.59 		"/>
		<g>
			<path style="fill:#282426;" d="M406.554,263.781c-1.625-22.955-21.551-40.247-44.507-38.622
				c-3.205,0.227-6.294,0.822-9.242,1.721l-4.869-10.101l-2.127,1.025l-3.973-8.24h4.66c0,0,0,0,0,0
				c1.892,0,3.426-5.348,3.426-11.945s-1.534-11.945-3.426-11.945l0,0h-9.999c-0.079,0-0.156,0.023-0.234,0.041l-0.023-0.231
				c-0.216-2.215-2.203-3.9-4.408-3.599c-0.023,0.003-0.046,0.006-0.069,0.01c-1.887,0.277-2.908-2.587-4.454-2.035
				c-0.508,0.182-1.113,0.386-1.696,0.58l-2.376-4.928l-5.191,2.503l1.46,3.029l2.291-0.543c0,0,0.492,0.311,1.182,0.788
				c0.93,0.642,2.218,1.583,3.154,2.469c0.271,0.256,0.509,0.506,0.703,0.745c0.22,0.271,0.386,0.526,0.46,0.75
				c0.532,1.609-1.444,4.801-1.444,4.801c-0.281-2.062-1.44-4.338-1.93-5.229c-0.135-0.246-0.222-0.393-0.222-0.393
				s0.001,0.004,0.068,0.467c0.058,0.396,0.164,1.125,0.362,2.487c0.181,1.238,0.071,2.246-0.112,3.018
				c-0.254,1.07-0.653,1.671-0.653,1.671s-0.311-1.399-0.765-3.445c-0.162-0.73-0.588-1.651-1.199-2.591
				c-0.717-1.102-1.7-2.221-2.858-3.107c-0.623-0.477-1.289-0.894-1.997-1.187c-1.386-0.178-0.882-0.006-1.814-0.384l-1.038,0.919
				l-2.807,2.483c-0.083-0.061-0.183-0.134-0.276-0.201c-1.251-0.912-3.349-2.396-5.467-3.912c-2.387-1.709-4.785-3.448-5.978-4.424
				c-2.427-1.956-8.928-7.806-8.928-7.806s9.107,5.852,11.129,7.096c2.39,1.482,4.753,2.165,4.753,2.165s-5.244-6.154-7.352-7.857
				c-2.107-1.703-8.26-9.72-8.071-10.693c-1.449-0.691-3.658-1.663-7.572,0.257c-0.619,0.294-1.227,0.652-1.817,1.042v-0.005
				c3.184-2.877,5.593-4.498,6.844-4.866c0,0-3.02-5.183-6.025-5.119c-1.322,0.028-4.935,0.239-7.915,0.573
				c2.678-1.622,5.877-2.77,9.939-3.45c-0.308-0.468-0.539-0.82-0.641-0.986c-1.706-2.81-2.926-4.969-3.641-6.267
				c-0.149-0.271-0.276-0.504-0.381-0.698c-0.75-1.682-2.681-5.856-4.156-7.701c-0.03-0.037-0.061-0.082-0.091-0.118
				c-1.417-1.701-3.156-3.303-4.905-4.725c2.251,1.005,4.259,2.019,5.767,2.981c0.274-0.785,0.607-1.596,1.03-2.365
				c4.674,1.272,11.475,2.329,13.83,2.007c3.168-0.433,5.04-2.406,6.644-4.243c1.603-1.836,2.192-4.001,1.983-4.741
				c-0.209-0.741-1.167-2.284-1.167-2.284s0.52-4.843-0.861-12.353l-6.565-1.475l6.151-0.602c0,0,1.078-0.212,0.454-2.096
				c-0.624-1.884-2.272-5.109-5.81-8.384c-3.538-3.275-17.001-7.071-26.188-0.511c-1.452,1.037-2.654,2.098-3.685,3.166
				c-0.265,0.032-0.554,0.348-1.238,1.368c0,0,0,0-0.001,0.001c-0.012,0.019-0.019,0.042-0.031,0.061
				c-1.722,2.645-1.208,7.251,0.69,9.676c1.912,2.443,4.448,2.974,4.448,2.974c-3.104-3.723-2.682-7.153,0.072-9.657
				c2.753-2.504,1.495-4.489-1.393-4.069c-1.042,0.152-1.592-0.017-1.956-0.171c3.73-2.319,9.1-5.037,13.461-4.778
				c7.495,0.445,10.504,3.823,12.225,5.936c0,0-6.671-2.492-13.272-0.459c0,0,8.475,2.314,11.136,6.163c0,0-5.402,0.629-6.926,0.951
				c-1.524,0.322-3.254,0.567-3.646,2.971c-0.118,0.72-0.901,4.373,1.383,5.793c2.284,1.42,16.281,8.163,16.281,8.163
				s-4.279,0.557-9.091,0.567c-2.482,0.005-5.105-0.136-7.357-0.573c-0.053-0.01-0.107-0.019-0.159-0.03
				c-6.618-1.336-16.615-7.793-17.529-8.391c-0.913-0.597-1.031-2.904-2.134-6.846c-0.357,2.139-0.29,4.075-0.157,5.619
				c0.151,1.76,1.116,4.174,3.09,6.046c0.447,0.424,1.228,1.027,2.189,1.717L258.312,122c-0.158,0.015-0.281,0.019-0.348,0.006
				c0.045,0.044,0.098,0.101,0.145,0.148l-0.147,0.112c0.129,0.045,0.261,0.091,0.391,0.137c0.098,0.101,0.197,0.204,0.3,0.315
				c2.97,3.173,8.104,9.944,8.104,9.944s-3.914-2.853-7.033-5.182c-1.878-1.402-5.422-2.021-7.952-2.293
				c0.985,0.93,3.067,3.003,5.207,5.811c2.951,3.871,2.097,7.069,1.773,10.295c-0.324,3.226,0.352,6.563,2.022,7.918
				c0,0,1.637-2.656,5.22-4.128c-4.208,3.667-3.703,7.149-3.703,7.149c1.088,1.607,0.871,1.471,1.203,1.991
				c0.196,0.308,0.583,0.846,1.547,2.113c0.506,0.665,1.069,1.35,1.651,2.016c0.34-0.487,0.687-0.952,1.038-1.407
				c2.19,2.904,6.539,8.597,7.878,9.8c0,0,0.765,0.656,1.816,1.63l1.909,1.749c1.226,1.109,2.817,2.619,3.989,3.907
				c0.776,0.869,2.067,2.012,3.698,3.214c1.774,1.318,3.929,2.701,6.187,3.886c-2.25,0.311-4.572,0.724-7.001,1.221
				c-9.322,1.906-24.908,3.898-32.255,6.031c-5.731-5.644-10.26-10.05-10.26-10.05s4.064-5.468,6.753-8.654
				c0.802-0.951,1.487-1.707,1.899-2.043c0.001-0.001,0.002-0.002,0.003-0.003c0.742-0.605,1.473-1.374,2.172-2.224
				c2.997-3.647,5.389-8.78,5.389-8.78l0.395-3.649c-4.126-2.253-13.851-14.158-14.585-20.843c-0.735-6.685-0.735-6.685-0.735-6.685
				s-4.156,9.598-4.162,18.541c-0.007,10.35-3.521,13.242-6.264,16.963c0,0,9.441-1.966,14.531-3.066c0,0-12.375,5.868-18.234,9.315
				c-5.859,3.447-8.256,6.061-8.256,6.061l11.135-1.408l-13.02,7.195c0,0,0.295,1.781,1.723,3.426
				c-2.971-0.205-5.38-0.383-7.223-0.525c-1.255-1.101-2.471-2.151-3.08-2.624c-1.557-1.21,0.294-3.447,2.9-9.09
				c2.606-5.643,15.934-28.946,15.934-28.946s-2.981,3.169-7.095,8.145c-4.082,4.938-9.28,11.656-13.791,18.828
				c-3.177,5.052-3.429,11.291-4.598,12.351c-1.17,1.06-1.429,4.009-1.143,7.205c0.133,1.484,0.764,3.235,1.402,4.689l0,0.001
				c0,0-0.487,0.519-1.051,1.317c-11.781-1.364-31.392-3.335-34.538-1.754c-1.45,0.729-2.986,1.553-4.315,2.402
				c1.222-0.408,2.721-0.705,3.853-0.712c4.29-0.027,16.144,1.855,19.172,3.202c3.029,1.347,11.742,7.483,14.133,7.987
				c0.809,0.171,2.99,0.73,5.52,1.396c4.945,1.301,11.226,3.008,11.226,3.008l-13.218-1.845l-22.175-3.095
				c0,0-18.331-6.99-20.307-8.657c-1.712,1.4-2.482,2.773-1.002,3.815c4.511,3.175,7.984,5.678,9.473,6.757
				c-0.001-0.001-0.002-0.001-0.003-0.002l45.302,9.369l5.394,2.721l-6.315,3.608l-10.121,17.958l-3.943,1.933
				c-6.994-9.428-17.899-15.868-30.527-16.762c-22.955-1.625-42.881,15.666-44.507,38.622c-1.322,18.68,9.883,35.353,26.473,41.791
				l-64.271,2.727h76.687c1.797,0.116,3.574,0.11,5.326,0h190.333c1.839,0.115,3.705,0.122,5.593-0.012
				C390.887,306.662,408.179,286.736,406.554,263.781z M342.861,239.457l0.872,1.81c-1.179,0.866-2.3,1.805-3.356,2.809
				C341.152,242.508,341.989,240.973,342.861,239.457z M364.79,272.841c4.48-0.317,7.854-4.206,7.537-8.685
				c-0.033-0.464-0.113-0.912-0.219-1.349c0.551,1,0.907,2.128,0.993,3.342c0.317,4.479-3.057,8.368-7.537,8.685
				c-4.016,0.284-7.548-2.402-8.466-6.188C358.58,271.337,361.524,273.072,364.79,272.841z M346.779,221.181l3.212,6.66l2.67,5.536
				l1.324,2.745l2.82,5.846l4.894,10.146l2.17,4.5l0.96,1.99l0.133,0.276l2.159,4.476l1.722,3.569l-2.903-3l-2.487-2.57l-0.701-1.41
				l-0.443-0.891l-0.96-1.931l-2.105-4.238l-4.942-9.947l-2.932-5.902l-1.288-2.592l-2.721-5.477l-2.235-4.499l-2.691,1.271
				l-0.937-1.867L346.779,221.181z M312.304,263.393c0.186,5.96-0.862,8.591-5.518,10.186c-0.811,0.278-1.663,0.31-2.516,0.19
				c0.081-0.806,0.131-1.621,0.113-2.451l-0.116-5.273l7.062-9.499C311.799,259.138,312.259,261.974,312.304,263.393z
				 M297.294,278.356c-0.435,1.058-0.964,2.103-1.632,3.1c-1.216,1.814-3.302,5.711-12.409,6.85
				c-9.107,1.139-61.479,0.911-61.479,0.911s37.886-2.05,50.515-2.278c12.629-0.228,19.985-3.507,21.906-6.843
				c0.579-1.006,1.081-1.992,1.52-2.95c1.11-2.419,1.804-4.646,2.239-6.53c0.821-3.558,0.72-5.885,0.72-5.885
				s0.523,2.855,0.227,6.605C298.729,273.502,298.278,275.962,297.294,278.356z M201.674,284.824
				c-3.126-0.021-5.344-0.142-5.589-0.448c-0.744-0.93,5.313-11.286,6.355-13.051c0.097-0.165,0.154-0.261,0.154-0.261
				s-0.073,0.351-0.191,0.903c-0.454,2.134-1.604,7.435-2.07,8.646c-0.095,0.246,0.493,0.511,1.535,0.782
				c1.381,0.359,3.565,0.729,6.062,1.081c7.284,1.027,17.174,1.899,17.174,1.899c-3.091,0-11.299,0.307-18.204,0.415
				C205.016,284.82,203.233,284.834,201.674,284.824z M245.717,278.725c0.611,0.616,4.302,2.99,6.63,3.686l-0.809,1.161
				c0,0-5.212-1.241-7.582-2.661c-2.307-1.421-3.026-2.381-3.739-2.949c-0.713-0.553-13.478-10.302-13.95-10.451
				c-1.353-2.516,3.721-5.516,5.256-7.574c0.092-0.127,0.184-0.238,0.244-0.426c2.96,0.096,14.509,3.96,14.237,4.606
				c-0.303,0.678-3.219,3.492-3.219,3.492l-5.195,1.174C237.589,268.784,243.457,276.445,245.717,278.725z M302.202,251.772
				l-1.828-2.241l2.231-3.144l-3.342,2.222l-2.628-1.374l4.126-2.855l4.954-0.86l4.227,6.816l-6.092,4.795l-0.743-2.365l2.608-2.939
				L302.202,251.772z M277.644,243.354h-4.493l-0.546-0.865h16.845l8.517-6.889h1.821l-9.795,9.249l-15.235,0.193l8.179-1.688
				H277.644z M290.742,223.112l-7.374,8.706l12.466-10.207l-4.515,6.885l7.712-6.105l-12.041,13.416l12.008-8.137l-11.245,10.796
				l-10.473,0.739l4.374-4.875l-8.442,4.137L290.742,223.112z M303.726,235.712V232.3c0-0.697,0.565-1.263,1.263-1.263
				c0.697,0,1.263,0.565,1.263,1.263v3.412c0,0.697-0.565,1.263-1.263,1.263C304.292,236.975,303.726,236.41,303.726,235.712z
				 M309.304,236.975c-0.697,0-1.263-0.565-1.263-1.263V232.3c0-0.697,0.565-1.263,1.263-1.263c0.697,0,1.263,0.565,1.263,1.263
				v3.412C310.567,236.41,310.001,236.975,309.304,236.975z M310.962,217.003c-0.182,0-0.36-0.02-0.531-0.056
				c-0.181-0.038-0.353-0.098-0.518-0.172c-0.521-0.233-0.942-0.637-1.21-1.137c-0.194-0.362-0.314-0.769-0.314-1.208
				c0-1.421,1.152-2.573,2.574-2.573c1.421,0,2.573,1.152,2.573,2.573c0,0.362-0.076,0.705-0.21,1.017
				C312.93,216.361,312.022,217.003,310.962,217.003z M306.3,216.027c0.125,0,0.246,0.02,0.366,0.037
				c-0.397,0.37-0.65,0.893-0.65,1.478c0,0.202,0.039,0.394,0.094,0.578c0.25,0.834,1.015,1.446,1.93,1.446
				c0.24,0,0.466-0.049,0.68-0.126c-0.35,1.006-1.296,1.733-2.421,1.733c-1.421,0-2.574-1.152-2.574-2.573
				c0-0.079,0.016-0.153,0.023-0.23C303.868,217.059,304.957,216.027,306.3,216.027z M287.888,249.326
				c3.558,0,6.45,2.892,6.45,6.448v9.609c0,3.556-2.892,6.448-6.45,6.448c-1.323,0-2.398,1.078-2.398,2.4v6.442
				c0,1.117-0.904,2.024-2.024,2.024c-0.115,0-0.226-0.016-0.336-0.034c0.16-0.24,0.258-0.511,0.258-0.804v-9.982
				c0-1.095,1.076-1.987,2.398-1.987c3.558,0,6.45-2.394,6.45-5.337V256.6c0-2.943-2.892-5.337-6.45-5.337h-23.883
				c0.539-0.631,1.091-1.279,1.65-1.937H287.888z M253.398,274.228c0-5.863,4.753-10.617,10.617-10.617
				c5.863,0,10.617,4.753,10.617,10.617c0,5.863-4.753,10.617-10.617,10.617C258.151,284.845,253.398,280.092,253.398,274.228z
				 M267.732,261.172c0,0,4.742-1.234,7.438,2.109c1.964,2.435,1.388,5.917,1.388,5.917
				C274.631,261.818,267.732,261.172,267.732,261.172z M257.302,256.598c0.384-0.439,0.794-0.911,1.225-1.408l20.926,1.408H257.302z
				 M209.274,271.782l1.682-2.929l2.882-5.018h-2.92h-5.27l5.163-1.268l9.478-2.328l-3.04,4.945l-6.408,5.301L209.274,271.782z
				 M313.431,237.929v-6.771l3.115-1.486v-6.561l7.627-17.714l-2.206-0.979h6.625l-2.912,6.324l-6.907,14.997v12.19H313.431z
				 M347.844,197.619c0,3.991-0.603,7.226-1.347,7.226c-0.744,0-1.347-3.235-1.347-7.226c0-3.991,0.603-7.226,1.347-7.226
				C347.241,190.393,347.844,193.628,347.844,197.619z M336.666,189.846l1.405-1.617l5-0.199c0,0-1.348,6.392-0.974,13.695
				c0,0-1.269-7.132-1.194-10.397h-4.092h-1.432L336.666,189.846z M275.797,186c9.557-1.683,17.353-2.207,25.512,0
				c4.635,1.254,7.33,4.926,8.26,8.888c-2.567,1.633-6.292,2.579-10.428,3.29c-0.633,0.109-1.272,0.214-1.922,0.313
				c-2.279,0.348-4.642,0.65-6.98,0.971c-1.411,0.194-2.629,0.531-3.702,0.949c-5.802,2.259-6.813,7.201-4.487,8.627
				c2.125,1.303,13.758,3.326,21.903,0.877c-3.123,2.867-7.595,4.901-14.442,4.649c-2.623-0.097-6.847-0.567-11.814-1.24
				c-0.168-0.394-0.3-0.719-0.366-0.936c-0.184-0.597-3.593-4.2-8.173-8.853c-0.832-0.845-1.703-1.725-2.6-2.628
				c0.816-0.756,6.478-5.827,13.252-7.417c9.214-2.163,20.194-3.027,20.194-3.027s-0.692-2.254-9.764-1.615
				c-8.209,0.578-27.619,2.307-32.3,3.469c-1.09-1.078-2.162-2.137-3.203-3.163C261.658,188.062,270.03,187.015,275.797,186z
				 M240.055,190.784c0.755,0.512,1.527,1.05,2.307,1.603c0.02,0.014,0.039,0.028,0.059,0.042c-0.03-0.005-0.06-0.011-0.09-0.016
				c-9.573-1.759-20.935-0.923-20.935-0.923s6.108,1.483,15.975,3.985c0.605,0.153,1.245,0.35,1.914,0.581
				c1.711,0.593,3.608,1.423,5.584,2.395c4.084,2.01,8.494,4.625,12.263,7c5.322,3.353,9.36,6.226,9.36,6.226c0,0,0,0,0,0
				c0.623,0.54,1.187,1.076,1.706,1.608c7.063,7.255,4.78,13.737,3.987,16.145c0,0-0.042-0.023-0.103-0.056
				c-0.05,0.271-0.11,0.54-0.18,0.806c-0.366,1.4-0.956,2.698-1.399,3.578c-0.177,0.351-0.33,0.637-0.434,0.835l-3.577-2.386
				l-5.371,12.835l-10.656-3.003l-2.223-0.626l1.358,1.416l6.232,6.497l-7.799,10.252c0,0-5.072-2.161-8.169-3.053
				c-1.044-0.31-2.788-0.777-4.247-0.929c0-0.001,0.001-0.001,0.001-0.002c1.471-3.137,2.968-5.436,3.639-8.297
				c1.24-5.29,2.89-9.492,4.484-12.709c0.106-0.213,0.21-0.418,0.315-0.623l-0.148,0.734l-2.323,11.523c0,0,2.714-4.961,5.439-9.448
				c1.989-3.274,3.983-6.296,4.934-6.951c0.889-0.612,2.501-2.489,4.128-4.535c0.234-0.294,0.467-0.59,0.7-0.888
				c0.414-0.531,0.821-1.06,1.212-1.574c0.716-0.943,1.369-1.821,1.893-2.535c0.745-1.014,1.23-1.691,1.23-1.691
				c-2.904-1.248-6.027-0.179-7.636,1.566c0,0,0,0,0,0c1.832-2.295,5.239-6.625,5.652-7.602c0.145-0.343,0.124-0.701-0.004-1.044
				c-0.167-0.445-0.516-0.859-0.926-1.175c-0.512-0.395-1.117-0.636-1.579-0.578c-0.21,0.026-0.508,0.095-0.843,0.176
				c-0.551,0.135-1.233,0.318-2.013,0.497c-1.269,0.293-2.75,0.559-4.152,0.518c-1.33-0.038-6.838-1.588-12.709-3.359
				c-2.55-0.769-5.166-1.579-7.54-2.326c-3.615-1.138-6.666-2.128-8.045-2.596c-5.416-1.838-7.958-6.369-10.636-7.247
				c-0.328-0.107-0.827-0.471-1.303-1.043c-0.866-1.041-1.655-2.784-1.194-5.007c0.433-1.357,1.047-2.421,1.928-2.46
				c0.503-0.023,1.17-0.094,1.911-0.191C216.684,186.359,229.056,185.966,240.055,190.784z M217.791,231.209l1.94-3.598l7.882-2.52
				h-4.137l2.985-2.706l9.762-0.81l0.699,2.885l-19.13,9.379V231.209z M204.963,245.1l0.872-0.392l26.894-12.086l6.528,5.419
				l-9.706-0.38l-21.849,8.976l-1.51,0.62l-14.538,5.973l-10.475,4.304l-4.819,1.98l-1.982,0.814l-4.751,1.952l-1.926,0.792
				l1.654-1.971l0,0l3.655-1.642l2.265-1.018l4.812-2.163l10.48-4.71L204.963,245.1z M169.554,272.841
				c1.921,0.136,3.73-0.41,5.199-1.428l1.501-0.39c-1.543,2.471-4.364,4.031-7.473,3.811c-4.48-0.317-7.854-4.206-7.537-8.685
				c0.086-1.214,0.441-2.342,0.993-3.342c-0.106,0.437-0.186,0.885-0.219,1.349C161.7,268.635,165.075,272.524,169.554,272.841z
				 M133.88,264.211c1.387-19.592,18.394-34.35,37.986-32.963c7.193,0.509,19.052,4.689,22.101,12.828
				c-5.568-5.295-12.923-8.774-21.192-9.359c-18.958-1.342-35.414,12.938-36.756,31.896c-0.794,11.212,3.903,21.52,11.774,28.373
				C138.603,287.962,133.002,276.611,133.88,264.211z M143.351,264.882c1.017-14.362,13.483-25.18,27.845-24.163
				c6.859,0.486,12.905,3.587,17.244,8.254l-10.775,5.283c-2.093-1.398-4.56-2.297-7.251-2.487
				c-8.259-0.585-15.428,5.637-16.013,13.895c-0.585,8.259,5.636,15.428,13.895,16.013c7.857,0.556,14.715-5.052,15.868-12.71
				l11.249-2.924c0.021,0.832,0.005,1.673-0.055,2.521c-1.017,14.362-13.483,25.18-27.845,24.163
				C153.152,291.71,142.334,279.244,143.351,264.882z M187.648,304.155c7.013-3.436,12.955-8.789,17.093-15.432l5.702,2.281
				c1.151,1.146,2.709,1.789,4.333,1.789h52.712l18.225-1.149c7.319-0.461,13.492-4.828,16.572-10.975
				c1.14,0.274,2.267,0.375,3.334,0.246c5.014-0.608,10.532-3.968,11.699-7.435c2.483-7.375-0.499-18.908-1.298-21.724l7.301-5.534
				l-0.851-4.721l7.193-4.691l0.199-2.815l-4.653-10.884l5.964-12.573l0.345-0.052l5.557,11.528l-2.127,1.025l5.006,10.383
				c-10.905,8.215-17.563,21.609-16.527,36.242c0.798,11.271,6.015,21.17,13.829,28.142L187.648,304.155z M366.831,292.727
				c-14.362,1.017-26.828-9.801-27.845-24.163c-0.569-8.033,2.568-15.472,7.954-20.647l5.287,10.967
				c-1.586,2.577-2.421,5.649-2.191,8.898c0.585,8.259,7.754,14.48,16.013,13.895c8.259-0.585,14.48-7.754,13.895-16.013
				c-0.564-7.968-7.261-14.021-15.149-13.913l-5.087-10.552c1.121-0.231,2.268-0.398,3.441-0.48
				c14.361-1.017,26.828,9.801,27.845,24.163C392.01,279.244,381.192,291.71,366.831,292.727z M386.552,294.986
				c7.871-6.853,12.568-17.161,11.774-28.373c-1.342-18.958-17.799-33.238-36.756-31.896c-1.594,0.113-3.152,0.335-4.671,0.655
				l-1.4-2.904c2.241-0.621,4.569-1.049,6.98-1.22c19.592-1.387,36.599,13.371,37.986,32.963
				C401.342,276.611,395.741,287.962,386.552,294.986z"/>
			<path style="fill:#282426;" d="M172.51,206.334C173.625,207.148,173.514,207.062,172.51,206.334L172.51,206.334z"/>
			<path style="fill:#282426;" d="M264.014,282.411c4.519,0,8.183-3.664,8.183-8.183c0-4.519-3.664-8.183-8.183-8.183
				c-4.519,0-8.183,3.664-8.183,8.183C255.831,278.748,259.495,282.411,264.014,282.411z M264.014,270.511
				c1.431,0,2.658,0.817,3.28,2.002c-0.479-0.224-1.007-0.359-1.571-0.359c-2.053,0-3.718,1.664-3.718,3.718
				c0,0.622,0.168,1.2,0.438,1.716c-1.265-0.593-2.147-1.869-2.147-3.358C260.297,272.175,261.961,270.511,264.014,270.511z"/>
			<path style="fill:#282426;" d="M269.995,107.954c0,0,0.234-2.463-0.049-3.151c-0.284-0.688-2.011-0.482-2.58-0.4
				c-0.569,0.082-0.821,0.784-0.821,0.784c0.836,0.041,1.622,0.554,2.004,1.036C268.931,106.705,269.995,107.954,269.995,107.954z"
				/>
		</g>
	</g>
</g>
<g id="TEXTS">
	
		<text transform="matrix(0.9829 0 0 1 95.8772 375.6631)" style="fill:#DA463F; font-family:'FugazOne-Regular'; font-size:69.5647px;">MACHINE</text>
	<g>
		
			<text transform="matrix(0.9122 0 0 1 138.1252 398.3497)" style="fill:#1D2029; font-family:'Syncopate-Bold'; font-size:20.3321px;">BIKER CLUB</text>
	</g>
</g>
</svg>
