<svg xmlns="http://www.w3.org/2000/svg" xmlns:xlink="http://www.w3.org/1999/xlink" version="1.1" x="0px" y="0px" viewBox="0 0 100 125" style="enable-background:new 0 0 100 100;" xml:space="preserve"><path d="M77.9245682,48.1103516c0.1181641,0.3647461,0.0205078,0.7573242-0.2539063,1.0249023l-3.0966797,3.0185547  l0.7314453,4.2617188c0.0644531,0.3779297-0.0878906,0.7519531-0.3974609,0.9775391  c-0.1748047,0.1279297-0.3808594,0.1933594-0.5878906,0.1933594c-0.1582031,0-0.3183594-0.0380859-0.4658203-0.1152344  l-3.828125-2.0136719l-3.828125,2.0126953c-0.3417969,0.1767578-0.7460938,0.1484375-1.0537109-0.0771484  c-0.3095703-0.2255859-0.4619141-0.5996094-0.3974609-0.9775391l0.7314453-4.2626953l-3.0966835-3.0180664  c-0.2744141-0.2670898-0.3720703-0.659668-0.2539063-1.0244141c0.1191406-0.3652344,0.4287109-0.6259766,0.8076172-0.6811523  l4.2793007-0.621582l1.9150391-3.878418c0.3398438-0.6875,1.453125-0.6870117,1.7929688-0.0004883  c0,0.0004883,0,0.0004883,0,0.0004883l1.9140625,3.878418l4.2802734,0.621582  C77.4958572,47.484375,77.8054276,47.7451172,77.9245682,48.1103516z M57.09058,47.4291992l-4.2802734-0.621582l-1.9140625-3.878418  c-0.3393555-0.6879883-1.4541016-0.6870117-1.7929688,0l-1.9140625,3.878418l-4.2797852,0.621582  c-0.3798828,0.0551758-0.6889648,0.315918-0.8076172,0.6811523c-0.1186523,0.3647461-0.0214844,0.7573242,0.2529297,1.0244141  l3.097168,3.0180664l-0.730957,4.2626953c-0.0649414,0.3779297,0.0869141,0.7519531,0.3964844,0.9775391  c0.3100586,0.2246094,0.7133789,0.2539063,1.0546875,0.0771484l3.8276367-2.0126953l3.828125,2.0136719  c0.1474609,0.0771484,0.3076172,0.1152344,0.4658203,0.1152344c0.2070313,0,0.4130859-0.0654297,0.5878906-0.1933594  c0.3095703-0.2255859,0.4619141-0.5996094,0.3974609-0.9775391l-0.7314453-4.2617188l3.0966797-3.0185547  c0.2744141-0.2675781,0.3720703-0.6601563,0.2539063-1.0249023C57.7790565,47.7451172,57.4694862,47.484375,57.09058,47.4291992z   M37.0637245,47.4291992l-4.2797852-0.621582l-1.9140625-3.878418c-0.3393555-0.6879883-1.4545898-0.6870117-1.7929688,0  l-1.9140625,3.878418l-4.2797852,0.621582c-0.3793945,0.0546875-0.6889648,0.315918-0.8071289,0.6801758  c-0.1186523,0.3647461-0.0219727,0.7578125,0.2524414,1.0253906l3.097168,3.0180664l-0.730957,4.2636719  c-0.0649414,0.3769531,0.0878906,0.7519531,0.3979492,0.9775391c0.3105469,0.2246094,0.7133789,0.2539063,1.0532227,0.0761719  l3.8276367-2.0126953l3.8286133,2.0136719c0.1474609,0.0771484,0.3066406,0.1152344,0.465332,0.1152344  c0.2070313,0,0.4125977-0.0654297,0.5883789-0.1933594c0.3095703-0.2255859,0.4614258-0.5996094,0.3964844-0.9775391  l-0.730957-4.2617188l3.0966797-3.0185547c0.2749023-0.2675781,0.3720703-0.6601563,0.253418-1.0249023  C37.7526894,47.7451172,37.4436073,47.484375,37.0637245,47.4291992z M17.0373573,47.4291992l-4.2797852-0.621582  l-1.9140625-3.878418c-0.3393555-0.6879883-1.4545898-0.6870117-1.7929688,0l-1.9140625,3.878418l-4.2797852,0.621582  c-0.3793945,0.0546875-0.6889648,0.315918-0.8071289,0.6801758c-0.1186522,0.3647461-0.0219727,0.7578125,0.2524414,1.0253906  l3.097168,3.0180664l-0.730957,4.2636719C4.6032753,56.793457,4.7561073,57.168457,5.0661659,57.394043  c0.3105469,0.2246094,0.7138672,0.2539063,1.0532227,0.0761719l3.8276367-2.0126953l3.8286133,2.0136719  c0.1474609,0.0771484,0.3066406,0.1152344,0.465332,0.1152344c0.2070313,0,0.4125977-0.0654297,0.5883789-0.1933594  c0.3095703-0.2255859,0.4614258-0.5996094,0.3964844-0.9775391l-0.730957-4.2617188l3.0966797-3.0185547  c0.2749023-0.2675781,0.3720703-0.6601563,0.253418-1.0249023C17.7263222,47.7451172,17.4172401,47.484375,17.0373573,47.4291992z   M97.6970291,49.1352539l-3.0966797,3.0185547l0.7314453,4.2617188c0.0644531,0.3779297-0.0878906,0.7519531-0.3974609,0.9775391  c-0.1748047,0.1279297-0.3808594,0.1933594-0.5878906,0.1933594c-0.1582031,0-0.3183594-0.0380859-0.4658203-0.1152344  l-3.828125-2.0136719l-3.828125,2.0126953c-0.3408203,0.1767578-0.7460938,0.1484375-1.0537109-0.0771484  c-0.3095703-0.2255859-0.4619141-0.5996094-0.3974609-0.9775391l0.7314453-4.2626953l-3.0966797-3.0180664  c-0.2744141-0.2670898-0.3720703-0.659668-0.2539063-1.0244141c0.1191406-0.3652344,0.4287109-0.6259766,0.8076172-0.6811523  l4.2792969-0.621582l1.9150391-3.878418c0.3398438-0.6875,1.453125-0.6870117,1.7929688-0.0004883  c0,0.0004883,0,0.0004883,0,0.0004883l1.9140625,3.878418l4.2802734,0.621582  c0.3789063,0.0551758,0.6884766,0.315918,0.8076172,0.6811523C98.0690994,48.4750977,97.9714432,48.8676758,97.6970291,49.1352539z   M96.9997635,48.4189453l-4.2802734-0.6220703c-0.3251953-0.0473633-0.6064453-0.2514648-0.7529297-0.5454102l-1.9160156-3.8828125  L88.1384354,47.25c-0.1464844,0.2954102-0.4277344,0.4995117-0.7529297,0.546875l-4.2792969,0.621582l3.0957031,3.0185547  c0.2353516,0.2294922,0.34375,0.5605469,0.2890625,0.8837891l-0.7314453,4.2646484l3.828125-2.0126953  c0.1455078-0.0761719,0.3056641-0.1142578,0.4648438-0.1142578c0.1601563,0,0.3193359,0.0380859,0.4638672,0.1132813  l3.8291016,2.0136719l-0.7314453-4.2626953c-0.0546875-0.3251953,0.0537109-0.65625,0.2890625-0.8857422L96.9997635,48.4189453z"/><text x="0" y="115" fill="#000000" font-size="5px" font-weight="bold" font-family="'Helvetica Neue', Helvetica, Arial-Unicode, Arial, Sans-serif">Created by Llisole</text><text x="0" y="120" fill="#000000" font-size="5px" font-weight="bold" font-family="'Helvetica Neue', Helvetica, Arial-Unicode, Arial, Sans-serif">from the Noun Project</text></svg>